<svg width="222" height="222" viewBox="0 0 222 222" fill="none" xmlns="http://www.w3.org/2000/svg">
<path d="M208.125 208.125H194.25V173.438C194.239 164.241 190.581 155.425 184.078 148.922C177.575 142.419 168.759 138.761 159.562 138.75V124.875C172.438 124.89 184.781 130.011 193.885 139.115C202.989 148.219 208.11 160.562 208.125 173.438V208.125Z" fill="#316086"/>
<path d="M152.625 208.125H138.75V173.438C138.739 164.241 135.081 155.425 128.578 148.922C122.075 142.419 113.259 138.761 104.062 138.75H62.4375C53.2412 138.761 44.4247 142.419 37.9219 148.922C31.4191 155.425 27.761 164.241 27.75 173.438V208.125H13.875V173.438C13.8897 160.562 19.0108 148.219 28.1149 139.115C37.2189 130.011 49.5624 124.89 62.4375 124.875H104.062C116.938 124.89 129.281 130.011 138.385 139.115C147.489 148.219 152.61 160.562 152.625 173.438V208.125Z" fill="#316086"/>
<path d="M138.75 13.875V27.75C147.95 27.75 156.773 31.4046 163.278 37.9097C169.783 44.4149 173.438 53.2378 173.438 62.4375C173.438 71.6372 169.783 80.4601 163.278 86.9653C156.773 93.4704 147.95 97.125 138.75 97.125V111C151.63 111 163.982 105.884 173.089 96.7764C182.196 87.6691 187.312 75.3171 187.312 62.4375C187.312 49.5579 182.196 37.2059 173.089 28.0986C163.982 18.9914 151.63 13.875 138.75 13.875Z" fill="#316086"/>
<path d="M83.25 27.75C90.1106 27.75 96.817 29.7844 102.521 33.5959C108.226 37.4074 112.672 42.8249 115.297 49.1632C117.923 55.5015 118.609 62.476 117.271 69.2047C115.933 75.9334 112.629 82.1141 107.778 86.9653C102.927 91.8164 96.7459 95.1201 90.0172 96.4585C83.2885 97.7969 76.314 97.11 69.9757 94.4846C63.6374 91.8592 58.2199 87.4132 54.4084 81.7088C50.5969 76.0045 48.5625 69.298 48.5625 62.4375C48.5625 53.2378 52.2171 44.4149 58.7223 37.9097C65.2274 31.4046 74.0503 27.75 83.25 27.75ZM83.25 13.875C73.6453 13.875 64.2562 16.7231 56.2701 22.0593C48.2841 27.3954 42.0597 34.9798 38.3841 43.8534C34.7085 52.7271 33.7468 62.4914 35.6206 71.9116C37.4944 81.3318 42.1196 89.9848 48.9111 96.7764C55.7027 103.568 64.3557 108.193 73.7759 110.067C83.1961 111.941 92.9604 110.979 101.834 107.303C110.708 103.628 118.292 97.4034 123.628 89.4174C128.964 81.4313 131.813 72.0423 131.813 62.4375C131.813 49.5579 126.696 37.2059 117.589 28.0986C108.482 18.9914 96.1296 13.875 83.25 13.875Z" fill="#316086"/>
</svg>
