<svg width="222" height="222" viewBox="0 0 222 222" fill="none" xmlns="http://www.w3.org/2000/svg">
<path d="M194.25 138.75H180.375V152.625H194.25V194.25H27.75V152.625H41.625V138.75H27.75C24.0712 138.754 20.5442 140.217 17.943 142.818C15.3417 145.419 13.8787 148.946 13.875 152.625V194.25C13.8787 197.929 15.3417 201.456 17.943 204.057C20.5442 206.658 24.0712 208.121 27.75 208.125H194.25C197.929 208.121 201.456 206.658 204.057 204.057C206.658 201.456 208.121 197.929 208.125 194.25V152.625C208.121 148.946 206.658 145.419 204.057 142.818C201.456 140.217 197.929 138.754 194.25 138.75Z" fill="#316086"/>
<path d="M48.5625 180.375C52.394 180.375 55.5 177.269 55.5 173.438C55.5 169.606 52.394 166.5 48.5625 166.5C44.731 166.5 41.625 169.606 41.625 173.438C41.625 177.269 44.731 180.375 48.5625 180.375Z" fill="#316086"/>
<path d="M104.062 138.75H55.5V90.1875H104.062V138.75ZM69.375 124.875H90.1875V104.062H69.375V124.875Z" fill="#316086"/>
<path d="M166.5 138.75H117.938V90.1875H166.5V138.75ZM131.812 124.875H152.625V104.062H131.812V124.875Z" fill="#316086"/>
<path d="M104.062 76.3125H55.5V27.75H104.062V76.3125ZM69.375 62.4375H90.1875V41.625H69.375V62.4375Z" fill="#316086"/>
<path d="M166.5 76.3125H117.938V27.75H166.5V76.3125ZM131.812 62.4375H152.625V41.625H131.812V62.4375Z" fill="#316086"/>
</svg>
