<svg width="222" height="222" viewBox="0 0 222 222" fill="none" xmlns="http://www.w3.org/2000/svg">
<path d="M102.268 23.3266C105.016 21.8007 108.107 21 111.25 21C114.393 21 117.484 21.8007 120.232 23.3266L189.746 61.9361C191.187 62.7375 192.387 63.9097 193.223 65.3311C194.059 66.7525 194.5 68.3716 194.5 70.0206V146.194C194.499 149.493 193.616 152.732 191.943 155.575C190.269 158.418 187.866 160.762 184.982 162.363L120.232 198.346C117.484 199.872 114.393 200.672 111.25 200.672C108.107 200.672 105.016 199.872 102.268 198.346L37.5182 162.363C34.6355 160.762 32.2331 158.42 30.5596 155.579C28.8861 152.738 28.0024 149.501 28 146.204V70.0206C27.9999 68.3716 28.4407 66.7525 29.2766 65.3311C30.1126 63.9097 31.3133 62.7375 32.7545 61.9361L102.277 23.3266H102.268Z" stroke="#316086" stroke-width="10" stroke-linecap="round" stroke-linejoin="round"/>
<path d="M111.25 110.831V203.331M28 64.5808L111.25 110.831L28 64.5808ZM111.25 110.831L194.5 64.5808L111.25 110.831Z" stroke="#316086" stroke-width="10" stroke-linejoin="round"/>
<path d="M69.625 87.7058L152.875 41.4558" stroke="#316086" stroke-width="10" stroke-linecap="round" stroke-linejoin="round"/>
<path d="M55.75 113.866L83.5 129.332" stroke="#316086" stroke-width="10" stroke-linecap="round" stroke-linejoin="round"/>
</svg>
