<svg width="143" height="142" viewBox="0 0 143 142" fill="none" xmlns="http://www.w3.org/2000/svg">
<g clip-path="url(#clip0_442_109)">
<path d="M124.58 70.9306C119.721 70.9306 114.632 70.1903 109.311 68.7097C103.99 67.2291 98.3682 65.7485 92.4458 64.2678C86.5233 62.7872 80.3926 62.0469 74.0538 62.0469C67.7149 62.0469 58.3685 63.5738 46.0147 66.6276C33.6608 69.6813 24.8465 71.1157 19.5718 70.9306C1.3418 70.3754 -4.07169 64.4529 3.33137 53.1632C6.10752 48.9065 9.09188 44.7654 12.2845 40.74C15.477 36.7146 19.6644 32.1108 24.8465 26.9286C30.0287 21.7465 35.3265 17.2815 40.74 13.5337C46.1535 9.78592 52.4692 6.59335 59.6872 3.95601C66.9052 1.31867 74.1694 0 81.48 0C90.8263 0 99.363 1.38807 107.09 4.16422C114.817 6.94037 121.225 10.7344 126.315 15.5464C131.404 20.3584 135.337 26.0033 138.113 32.4809C140.89 38.9586 142.278 45.8527 142.278 53.1632C142.278 58.9006 140.543 63.2962 137.072 66.35C133.602 69.4037 129.438 70.9306 124.58 70.9306ZM74.1232 70.9306C78.6576 70.9306 83.2845 71.347 88.0039 72.1799C84.7651 88.5591 85.089 107.391 88.9756 128.674C89.7159 132.376 89.6465 135.522 88.7674 138.113C87.8882 140.704 86.1994 142 83.7009 142H54.9677C52.2841 142 49.9013 140.774 47.8192 138.322C45.7371 135.869 44.6497 132.978 44.5572 129.646C44.002 109.935 46.6856 91.3816 52.608 73.9844C61.2141 71.9485 68.3858 70.9306 74.1232 70.9306Z" fill="#316086"/>
</g>
<defs>
<clipPath id="clip0_442_109">
<rect width="142.278" height="142" fill="white"/>
</clipPath>
</defs>
</svg>
